<mxfile host="app.diagrams.net" modified="2023-02-19T11:20:27.603Z" agent="5.0 (Windows NT 10.0; Win64; x64) AppleWebKit/537.36 (KHTML, like Gecko) Chrome/109.0.0.0 Safari/537.36" etag="cVAkP_Zpl8UJ9cvYHVsf" version="20.8.20" type="github">
  <diagram name="Page-1" id="gVpjbQXpnEXxmc11hOPs">
    <mxGraphModel dx="880" dy="522" grid="1" gridSize="10" guides="1" tooltips="1" connect="1" arrows="1" fold="1" page="1" pageScale="1" pageWidth="850" pageHeight="1100" math="0" shadow="0">
      <root>
        <mxCell id="0" />
        <mxCell id="1" parent="0" />
        <mxCell id="K7zBov3Qe1N0qKhGOP9e-1" value="&lt;span style=&quot;font-size: 14px;&quot;&gt;&lt;b&gt;PENGUMPULAN DATA&lt;/b&gt;&lt;/span&gt;" style="rounded=0;whiteSpace=wrap;html=1;" vertex="1" parent="1">
          <mxGeometry x="40" y="40" width="170" height="70" as="geometry" />
        </mxCell>
        <mxCell id="K7zBov3Qe1N0qKhGOP9e-2" value="&lt;b&gt;&lt;font style=&quot;font-size: 14px;&quot;&gt;&lt;i&gt;PRE-PROCESSING&lt;/i&gt;&lt;/font&gt;&lt;/b&gt;" style="rounded=0;whiteSpace=wrap;html=1;" vertex="1" parent="1">
          <mxGeometry x="290" y="40" width="200" height="70" as="geometry" />
        </mxCell>
        <mxCell id="K7zBov3Qe1N0qKhGOP9e-3" value="&lt;b&gt;&lt;font style=&quot;font-size: 14px;&quot;&gt;PEMODELAN DAN PERAMALAN&lt;/font&gt;&lt;/b&gt;" style="rounded=0;whiteSpace=wrap;html=1;" vertex="1" parent="1">
          <mxGeometry x="710" y="40" width="250" height="70" as="geometry" />
        </mxCell>
        <mxCell id="K7zBov3Qe1N0qKhGOP9e-4" value="" style="endArrow=classic;html=1;rounded=0;fontSize=14;entryX=0;entryY=0.5;entryDx=0;entryDy=0;" edge="1" parent="1">
          <mxGeometry width="50" height="50" relative="1" as="geometry">
            <mxPoint x="210" y="74.5" as="sourcePoint" />
            <mxPoint x="290" y="74.5" as="targetPoint" />
          </mxGeometry>
        </mxCell>
        <mxCell id="K7zBov3Qe1N0qKhGOP9e-5" value="" style="endArrow=classic;html=1;rounded=0;fontSize=14;entryX=0;entryY=0.5;entryDx=0;entryDy=0;" edge="1" parent="1" target="K7zBov3Qe1N0qKhGOP9e-3">
          <mxGeometry width="50" height="50" relative="1" as="geometry">
            <mxPoint x="490" y="74.5" as="sourcePoint" />
            <mxPoint x="570" y="74.5" as="targetPoint" />
          </mxGeometry>
        </mxCell>
        <mxCell id="K7zBov3Qe1N0qKhGOP9e-6" value="" style="endArrow=classic;html=1;rounded=0;fontSize=14;exitX=0;exitY=1;exitDx=0;exitDy=0;entryX=0.5;entryY=0;entryDx=0;entryDy=0;" edge="1" parent="1" source="K7zBov3Qe1N0qKhGOP9e-2" target="K7zBov3Qe1N0qKhGOP9e-9">
          <mxGeometry width="50" height="50" relative="1" as="geometry">
            <mxPoint x="300" y="105" as="sourcePoint" />
            <mxPoint x="200" y="160" as="targetPoint" />
          </mxGeometry>
        </mxCell>
        <mxCell id="K7zBov3Qe1N0qKhGOP9e-7" value="" style="endArrow=classic;html=1;rounded=0;fontSize=14;exitX=0.5;exitY=1;exitDx=0;exitDy=0;entryX=0.5;entryY=0;entryDx=0;entryDy=0;" edge="1" parent="1" source="K7zBov3Qe1N0qKhGOP9e-2" target="K7zBov3Qe1N0qKhGOP9e-11">
          <mxGeometry width="50" height="50" relative="1" as="geometry">
            <mxPoint x="310" y="115" as="sourcePoint" />
            <mxPoint x="390" y="170" as="targetPoint" />
          </mxGeometry>
        </mxCell>
        <mxCell id="K7zBov3Qe1N0qKhGOP9e-8" value="" style="endArrow=classic;html=1;rounded=0;fontSize=14;exitX=1;exitY=1;exitDx=0;exitDy=0;entryX=0.5;entryY=0;entryDx=0;entryDy=0;" edge="1" parent="1" source="K7zBov3Qe1N0qKhGOP9e-2" target="K7zBov3Qe1N0qKhGOP9e-12">
          <mxGeometry width="50" height="50" relative="1" as="geometry">
            <mxPoint x="320" y="125" as="sourcePoint" />
            <mxPoint x="530" y="170" as="targetPoint" />
          </mxGeometry>
        </mxCell>
        <mxCell id="K7zBov3Qe1N0qKhGOP9e-9" value="&lt;b&gt;&lt;i&gt;Data Cleaning&lt;/i&gt;&lt;/b&gt;" style="rounded=0;whiteSpace=wrap;html=1;fontSize=14;" vertex="1" parent="1">
          <mxGeometry x="150" y="160" width="160" height="60" as="geometry" />
        </mxCell>
        <mxCell id="K7zBov3Qe1N0qKhGOP9e-11" value="&lt;b style=&quot;border-color: var(--border-color);&quot;&gt;&lt;i&gt;Data Conversion&lt;/i&gt;&lt;/b&gt;" style="rounded=0;whiteSpace=wrap;html=1;fontSize=14;" vertex="1" parent="1">
          <mxGeometry x="310" y="230" width="160" height="60" as="geometry" />
        </mxCell>
        <mxCell id="K7zBov3Qe1N0qKhGOP9e-12" value="&lt;b style=&quot;border-color: var(--border-color);&quot;&gt;&lt;i&gt;Data Selection&amp;nbsp;&lt;/i&gt;&lt;/b&gt;" style="rounded=0;whiteSpace=wrap;html=1;fontSize=14;" vertex="1" parent="1">
          <mxGeometry x="470" y="160" width="160" height="60" as="geometry" />
        </mxCell>
        <mxCell id="K7zBov3Qe1N0qKhGOP9e-13" value="" style="endArrow=classic;html=1;rounded=0;fontSize=14;exitX=0.75;exitY=1;exitDx=0;exitDy=0;entryX=0.5;entryY=0;entryDx=0;entryDy=0;" edge="1" parent="1" source="K7zBov3Qe1N0qKhGOP9e-3" target="K7zBov3Qe1N0qKhGOP9e-14">
          <mxGeometry width="50" height="50" relative="1" as="geometry">
            <mxPoint x="890" y="110" as="sourcePoint" />
            <mxPoint x="950" y="160" as="targetPoint" />
          </mxGeometry>
        </mxCell>
        <mxCell id="K7zBov3Qe1N0qKhGOP9e-14" value="&lt;b style=&quot;border-color: var(--border-color);&quot;&gt;ARIMA&lt;/b&gt;" style="rounded=0;whiteSpace=wrap;html=1;fontSize=14;" vertex="1" parent="1">
          <mxGeometry x="850" y="160" width="160" height="60" as="geometry" />
        </mxCell>
        <mxCell id="K7zBov3Qe1N0qKhGOP9e-15" value="&lt;b style=&quot;border-color: var(--border-color);&quot;&gt;LSTM&lt;/b&gt;" style="rounded=0;whiteSpace=wrap;html=1;fontSize=14;" vertex="1" parent="1">
          <mxGeometry x="670" y="160" width="160" height="60" as="geometry" />
        </mxCell>
        <mxCell id="K7zBov3Qe1N0qKhGOP9e-16" value="" style="endArrow=classic;html=1;rounded=0;fontSize=14;exitX=0.25;exitY=1;exitDx=0;exitDy=0;entryX=0.5;entryY=0;entryDx=0;entryDy=0;" edge="1" parent="1" source="K7zBov3Qe1N0qKhGOP9e-3" target="K7zBov3Qe1N0qKhGOP9e-15">
          <mxGeometry width="50" height="50" relative="1" as="geometry">
            <mxPoint x="880" y="120" as="sourcePoint" />
            <mxPoint x="970" y="170" as="targetPoint" />
          </mxGeometry>
        </mxCell>
        <mxCell id="K7zBov3Qe1N0qKhGOP9e-17" value="" style="endArrow=classic;html=1;rounded=0;fontSize=14;exitX=0.5;exitY=1;exitDx=0;exitDy=0;entryX=0.5;entryY=0;entryDx=0;entryDy=0;" edge="1" parent="1" source="K7zBov3Qe1N0qKhGOP9e-15" target="K7zBov3Qe1N0qKhGOP9e-19">
          <mxGeometry width="50" height="50" relative="1" as="geometry">
            <mxPoint x="770" y="300" as="sourcePoint" />
            <mxPoint x="830" y="360" as="targetPoint" />
            <Array as="points" />
          </mxGeometry>
        </mxCell>
        <mxCell id="K7zBov3Qe1N0qKhGOP9e-18" value="" style="endArrow=classic;html=1;rounded=0;fontSize=14;exitX=0.5;exitY=1;exitDx=0;exitDy=0;entryX=0.5;entryY=0;entryDx=0;entryDy=0;" edge="1" parent="1" source="K7zBov3Qe1N0qKhGOP9e-14" target="K7zBov3Qe1N0qKhGOP9e-19">
          <mxGeometry width="50" height="50" relative="1" as="geometry">
            <mxPoint x="760" y="230" as="sourcePoint" />
            <mxPoint x="830" y="360" as="targetPoint" />
          </mxGeometry>
        </mxCell>
        <mxCell id="K7zBov3Qe1N0qKhGOP9e-19" value="&lt;b style=&quot;border-color: var(--border-color);&quot;&gt;EVALUASI MODEL&lt;/b&gt;" style="rounded=0;whiteSpace=wrap;html=1;fontSize=14;" vertex="1" parent="1">
          <mxGeometry x="770" y="380" width="160" height="60" as="geometry" />
        </mxCell>
        <mxCell id="K7zBov3Qe1N0qKhGOP9e-20" value="" style="endArrow=classic;html=1;rounded=0;fontSize=14;exitX=0;exitY=0.5;exitDx=0;exitDy=0;" edge="1" parent="1" source="K7zBov3Qe1N0qKhGOP9e-19">
          <mxGeometry width="50" height="50" relative="1" as="geometry">
            <mxPoint x="670" y="370" as="sourcePoint" />
            <mxPoint x="640" y="410" as="targetPoint" />
          </mxGeometry>
        </mxCell>
        <mxCell id="K7zBov3Qe1N0qKhGOP9e-21" value="&lt;b style=&quot;border-color: var(--border-color);&quot;&gt;VISUALISASI&lt;/b&gt;" style="rounded=0;whiteSpace=wrap;html=1;fontSize=14;" vertex="1" parent="1">
          <mxGeometry x="480" y="380" width="160" height="60" as="geometry" />
        </mxCell>
      </root>
    </mxGraphModel>
  </diagram>
</mxfile>
